<svg xmlns="http://www.w3.org/2000/svg" xmlns:xlink="http://www.w3.org/1999/xlink" viewBox="0,0,256,256" width="50px" height="50px" fill-rule="nonzero"><g fill="#855de8" fill-rule="nonzero" stroke="none" stroke-width="1" stroke-linecap="butt" stroke-linejoin="miter" stroke-miterlimit="10" stroke-dasharray="" stroke-dashoffset="0" font-family="none" font-weight="none" font-size="none" text-anchor="none" style="mix-blend-mode: normal"><g transform="translate(-31.83059,43.01657) rotate(-17) scale(5.12,5.12) skewX(0)"><path d="M13,4c-4.962,0 -9,4.037 -9,9v24c0,4.963 4.038,9 9,9h24c4.962,0 9,-4.037 9,-9v-24c0,-4.963 -4.038,-9 -9,-9zM13,11c2.206,0 4,1.794 4,4c0,2.206 -1.794,4 -4,4c-2.206,0 -4,-1.794 -4,-4c0,-2.206 1.794,-4 4,-4zM13,12c-1.654,0 -3,1.346 -3,3c0,1.654 1.346,3 3,3c1.654,0 3,-1.346 3,-3c0,-1.654 -1.346,-3 -3,-3zM13,13c1.105,0 2,0.895 2,2c0,1.105 -0.895,2 -2,2c-1.105,0 -2,-0.895 -2,-2c0,-1.105 0.895,-2 2,-2zM21,14h18c0.553,0 1,0.447 1,1c0,0.553 -0.447,1 -1,1h-18c-0.553,0 -1,-0.447 -1,-1c0,-0.553 0.447,-1 1,-1zM13,21c2.206,0 4,1.794 4,4c0,2.206 -1.794,4 -4,4c-2.206,0 -4,-1.794 -4,-4c0,-2.206 1.794,-4 4,-4zM13,22c-1.654,0 -3,1.346 -3,3c0,1.654 1.346,3 3,3c1.654,0 3,-1.346 3,-3c0,-1.654 -1.346,-3 -3,-3zM13,23c1.105,0 2,0.895 2,2c0,1.105 -0.895,2 -2,2c-1.105,0 -2,-0.895 -2,-2c0,-1.105 0.895,-2 2,-2zM21,24h18c0.553,0 1,0.447 1,1c0,0.553 -0.447,1 -1,1h-18c-0.553,0 -1,-0.447 -1,-1c0,-0.553 0.447,-1 1,-1zM13,31c2.206,0 4,1.794 4,4c0,2.206 -1.794,4 -4,4c-2.206,0 -4,-1.794 -4,-4c0,-2.206 1.794,-4 4,-4zM13,32c-1.654,0 -3,1.346 -3,3c0,1.654 1.346,3 3,3c1.654,0 3,-1.346 3,-3c0,-1.654 -1.346,-3 -3,-3zM13,33c1.105,0 2,0.895 2,2c0,1.105 -0.895,2 -2,2c-1.105,0 -2,-0.895 -2,-2c0,-1.105 0.895,-2 2,-2zM21,34h18c0.553,0 1,0.447 1,1c0,0.553 -0.447,1 -1,1h-18c-0.553,0 -1,-0.447 -1,-1c0,-0.553 0.447,-1 1,-1z"></path></g></g></svg>